<?xml version="1.0" encoding="utf-8"?>
<!-- Generator: Adobe Illustrator 27.9.0, SVG Export Plug-In . SVG Version: 6.00 Build 0)  -->
<svg version="1.1" id="Layer_1" xmlns="http://www.w3.org/2000/svg" xmlns:xlink="http://www.w3.org/1999/xlink" x="0px" y="0px"
	 viewBox="0 0 100 100" style="enable-background:new 0 0 100 100;" xml:space="preserve">
<style type="text/css">
	.st0{fill-rule:evenodd;clip-rule:evenodd;fill:#FFFFFF;}
</style>
<g>
	<path class="st0" d="M69.79,45.65c-1.33,0-2.43,0.22-3.32,0.68c-0.86,0.45-1.57,1.01-2.11,1.67c-0.54,0.67-0.9,1.38-1.12,2.14
		c-0.21,0.74-0.34,1.41-0.38,2h13.56c-0.2-2.12-0.93-3.7-1.92-4.8s-2.67-1.69-4.72-1.69H69.79z"/>
	<path class="st0" d="M39.3,44.41c1.06-0.77,1.58-2.05,1.58-3.81c0-0.98-0.17-1.78-0.51-2.41c-0.36-0.63-0.83-1.12-1.42-1.46
		c-0.59-0.36-1.26-0.6-2.03-0.74c-0.76-0.15-1.56-0.21-2.37-0.21h-8.63v9.79h9.34c1.64,0,2.99-0.39,4.06-1.18L39.3,44.41z"/>
	<path class="st0" d="M40.74,53.26c-1.21-0.92-2.83-1.37-4.81-1.37H25.9v11.54h9.85c0.91,0,1.78-0.08,2.59-0.26
		c0.83-0.18,1.56-0.47,2.17-0.89c0.62-0.41,1.13-0.96,1.5-1.67c0.37-0.7,0.55-1.61,0.55-2.72C42.56,55.73,41.95,54.2,40.74,53.26z"
		/>
	<path class="st0" d="M50,0C22.39,0,0,22.39,0,50s22.39,50,50,50s50-22.39,50-50S77.61,0,50,0z M61.15,31.46h16.99v4.14H61.15V31.46
		z M50.54,63.89c-0.82,1.56-1.94,2.82-3.32,3.8c-1.39,0.98-2.98,1.7-4.77,2.17c-1.77,0.47-3.6,0.71-5.48,0.71H16.65V28.65h19.76
		c2.01,0,3.81,0.17,5.47,0.53c1.64,0.35,3.05,0.93,4.23,1.73c1.17,0.8,2.08,1.86,2.74,3.2c0.64,1.32,0.96,2.97,0.96,4.92
		c0,2.11-0.48,3.87-1.44,5.28c-0.97,1.41-2.38,2.56-4.28,3.46c2.58,0.74,4.49,2.05,5.76,3.9c1.27,1.87,1.9,4.11,1.9,6.73
		C51.75,60.52,51.34,62.36,50.54,63.89L50.54,63.89z M84.75,57.4h-21.9c0,2.4,0.81,4.67,2.06,5.89c1.25,1.22,3.05,1.83,5.39,1.83
		c1.68,0,3.14-0.42,4.35-1.27c1.21-0.85,1.94-1.75,2.23-2.69h7.34c-1.18,3.65-2.97,6.26-5.41,7.83c-2.41,1.58-5.36,2.36-8.79,2.36
		c-2.39,0-4.54-0.39-6.47-1.15c-1.93-0.77-3.54-1.85-4.9-3.26c-1.32-1.42-2.35-3.09-3.08-5.06c-0.72-1.96-1.09-4.12-1.09-6.47
		s0.38-4.39,1.12-6.35c0.76-1.96,1.8-3.66,3.18-5.09s3.01-2.56,4.92-3.38c1.9-0.82,4-1.24,6.33-1.24c2.57,0,4.82,0.49,6.74,1.5
		c1.92,0.99,3.5,2.34,4.73,4.02c1.24,1.68,2.12,3.6,2.67,5.76c0.55,2.15,0.74,4.4,0.58,6.76L84.75,57.4z"/>
</g>
</svg>
