<?xml version="1.0" encoding="utf-8"?>
<!-- Generator: Adobe Illustrator 27.9.0, SVG Export Plug-In . SVG Version: 6.00 Build 0)  -->
<svg version="1.1" id="Layer_1" xmlns="http://www.w3.org/2000/svg" xmlns:xlink="http://www.w3.org/1999/xlink" x="0px" y="0px"
	 viewBox="0 0 100 100" style="enable-background:new 0 0 100 100;" xml:space="preserve">
<style type="text/css">
	.st0{fill:#FFFFFF;}
</style>
<g>
	<circle class="st0" cx="50" cy="50" r="10.49"/>
	<path class="st0" d="M74.54,31.43c-0.57-1.47-1.25-2.52-2.35-3.62c-1.1-1.1-2.15-1.78-3.62-2.35c-1.11-0.43-2.78-0.94-5.85-1.08
		C59.4,24.23,58.4,24.2,50,24.2s-9.4,0.03-12.72,0.18c-3.07,0.14-4.74,0.65-5.85,1.08c-1.47,0.57-2.52,1.25-3.62,2.35
		s-1.78,2.15-2.35,3.62c-0.43,1.11-0.94,2.78-1.08,5.85C24.23,40.6,24.2,41.6,24.2,50s0.03,9.4,0.18,12.72
		c0.14,3.07,0.65,4.74,1.08,5.85c0.57,1.47,1.25,2.52,2.35,3.62s2.15,1.78,3.62,2.35c1.11,0.43,2.78,0.94,5.85,1.08
		C40.6,75.77,41.59,75.8,50,75.8s9.4-0.03,12.72-0.18c3.07-0.14,4.74-0.65,5.85-1.08c1.47-0.57,2.52-1.25,3.62-2.35
		s1.78-2.15,2.35-3.62c0.43-1.11,0.94-2.78,1.08-5.85C75.77,59.4,75.8,58.4,75.8,50s-0.03-9.4-0.18-12.72
		C75.48,34.21,74.97,32.54,74.54,31.43z M50,66.16c-8.93,0-16.17-7.24-16.17-16.17S41.07,33.82,50,33.82s16.17,7.24,16.17,16.17
		S58.93,66.16,50,66.16z M66.8,36.97c-2.09,0-3.78-1.69-3.78-3.78s1.69-3.78,3.78-3.78s3.78,1.69,3.78,3.78S68.89,36.97,66.8,36.97z
		"/>
	<path class="st0" d="M50,0C22.39,0,0,22.39,0,50s22.39,50,50,50s50-22.39,50-50S77.61,0,50,0z M81.29,62.98
		c-0.15,3.35-0.69,5.64-1.46,7.64c-0.8,2.07-1.88,3.83-3.63,5.58s-3.51,2.83-5.58,3.63c-2,0.78-4.29,1.31-7.64,1.46
		c-3.36,0.15-4.43,0.19-12.98,0.19s-9.62-0.04-12.98-0.19c-3.35-0.15-5.64-0.69-7.64-1.46c-2.07-0.8-3.83-1.88-5.58-3.63
		s-2.83-3.51-3.63-5.58c-0.78-2-1.31-4.29-1.46-7.64c-0.15-3.36-0.19-4.43-0.19-12.98s0.04-9.62,0.19-12.98
		c0.15-3.35,0.69-5.64,1.46-7.64c0.8-2.07,1.88-3.83,3.63-5.58c1.75-1.75,3.51-2.83,5.58-3.63c2-0.78,4.29-1.31,7.64-1.46
		c3.36-0.15,4.43-0.19,12.98-0.19s9.62,0.04,12.98,0.19c3.35,0.15,5.64,0.69,7.64,1.46c2.07,0.8,3.83,1.88,5.58,3.63
		c1.75,1.75,2.83,3.51,3.63,5.58c0.78,2,1.31,4.29,1.46,7.64c0.15,3.36,0.19,4.43,0.19,12.98S81.44,59.62,81.29,62.98z"/>
</g>
</svg>
