<?xml version="1.0" encoding="UTF-8"?>
<svg id="Layer_1" data-name="Layer 1" xmlns="http://www.w3.org/2000/svg" viewBox="0 0 100 100">
  <defs>
    <style>
      .cls-1 {
        fill: #fff;
        stroke-width: 0px;
      }
    </style>
  </defs>
  <path class="cls-1" d="m50,0C22.39,0,0,22.39,0,50s22.39,50,50,50,50-22.39,50-50S77.61,0,50,0Zm-16.5,77.32c-3.56-.04-7.11-.03-10.67,0-.57,0-.74-.14-.74-.73.02-12.68.02-25.35,0-38.03,0-.52.13-.71.68-.71,3.61.02,7.22.03,10.83,0,.69,0,.79.26.79.86-.02,6.31-.01,12.62-.01,18.94s-.01,12.52.01,18.78c0,.7-.17.91-.89.9Zm-5.25-44.89c-3.87,0-7.09-3.2-7.1-7.07-.01-3.91,3.2-7.13,7.12-7.13,3.89,0,7.09,3.2,7.09,7.07,0,3.93-3.19,7.13-7.11,7.13Zm52.15,44.08c0,.65-.18.82-.82.81-3.56-.03-7.12-.03-10.67,0-.63,0-.76-.19-.76-.78.02-6.57.02-13.14,0-19.72,0-1.65-.11-3.29-.57-4.89-.85-2.95-2.96-4.45-6.05-4.29-4.22.22-6.41,2.31-6.95,6.6-.13,1.02-.19,2.05-.19,3.08,0,6.39,0,12.78.02,19.18,0,.64-.16.83-.81.82-3.58-.03-7.17-.03-10.75,0-.57,0-.74-.15-.74-.73.02-12.65.02-25.31,0-37.96,0-.63.2-.77.8-.77,3.4.03,6.81.03,10.21,0,.63,0,.79.2.77.79-.03,1.51-.01,3.03-.01,4.54.82-.92,1.5-1.86,2.34-2.65,2.59-2.44,5.66-3.68,9.24-3.65,1.97.02,3.91.16,5.81.71,4.34,1.25,6.86,4.24,8.06,8.48.9,3.18,1.07,6.44,1.07,9.72.01,6.91-.02,13.81,0,20.72Z"/>
</svg>